<svg xmlns="http://www.w3.org/2000/svg" width="27.982" height="31.466" viewBox="0 0 27.982 31.466">
  <path id="パス_1154" data-name="パス 1154" d="M23.066,24.029l-4.875-3.6a1.091,1.091,0,0,0-1.445.133l-1.7,1.816c-1.8-.043-4.012-1.839-6.756-5.487s-3.857-6.27-3.4-8.013L7.107,7.748A1.091,1.091,0,0,0,7.635,6.4L5.527.714A1.092,1.092,0,0,0,4.872.065a1.08,1.08,0,0,0-.909.08A8.152,8.152,0,0,0,2.54,1.222l-.011.011A9.167,9.167,0,0,0,.015,7.117c-.183,4.211,1.263,8.207,4.549,12.575s6.725,6.865,10.821,7.857a8.894,8.894,0,0,0,2.1.256,9.647,9.647,0,0,0,4.195-1.015,1.272,1.272,0,0,0,.119-.064,8.057,8.057,0,0,0,1.377-1.037,1.081,1.081,0,0,0,.329-.851A1.092,1.092,0,0,0,23.066,24.029Z" transform="matrix(0.985, 0.174, -0.174, 0.985, 4.828, 0)" fill="#fff"/>
</svg>
